<svg width="46" height="46" viewBox="0 0 46 46" fill="none" xmlns="http://www.w3.org/2000/svg">
<g clip-path="url(#clip0_206_5)">
<path d="M23 0C18.451 0 14.0042 1.34893 10.2219 3.8762C6.43953 6.40347 3.49157 9.99558 1.75075 14.1983C0.00993495 18.401 -0.445542 23.0255 0.441918 27.4871C1.32938 31.9486 3.51992 36.0468 6.73652 39.2635C9.95313 42.4801 14.0513 44.6706 18.5129 45.5581C22.9745 46.4455 27.599 45.99 31.8017 44.2492C36.0044 42.5084 39.5965 39.5604 42.1238 35.7781C44.6511 31.9958 46 27.549 46 23C45.9933 16.9021 43.568 11.0558 39.2561 6.7439C34.9442 2.432 29.0979 0.0066587 23 0V0ZM23 44.5625C18.7353 44.5625 14.5664 43.2979 11.0205 40.9286C7.47456 38.5592 4.71084 35.1916 3.07883 31.2516C1.44681 27.3116 1.0198 22.9761 1.8518 18.7934C2.68379 14.6107 4.73742 10.7686 7.75299 7.75301C10.7686 4.73744 14.6106 2.68381 18.7933 1.85182C22.9761 1.01982 27.3116 1.44683 31.2516 3.07885C35.1916 4.71086 38.5592 7.47458 40.9285 11.0205C43.2979 14.5665 44.5625 18.7353 44.5625 23C44.5558 28.7167 42.2819 34.1973 38.2396 38.2396C34.1973 42.2819 28.7167 44.5558 23 44.5625Z" fill="black"/>
<path d="M36.8359 22.2814H10.8998L20.452 12.7256C20.5698 12.5881 20.6313 12.4112 20.6243 12.2303C20.6173 12.0494 20.5424 11.8778 20.4143 11.7498C20.2863 11.6218 20.1147 11.5468 19.9339 11.5398C19.753 11.5329 19.5761 11.5944 19.4386 11.7121L8.65735 22.4934C8.62335 22.5271 8.59321 22.5644 8.5675 22.6048C8.55518 22.6212 8.54548 22.6393 8.53875 22.6587C8.52346 22.6814 8.51023 22.7055 8.49922 22.7306L8.47766 22.8024C8.46953 22.8221 8.46351 22.8426 8.45969 22.8635C8.44129 22.9561 8.44129 23.0513 8.45969 23.1439C8.46351 23.1648 8.46953 23.1853 8.47766 23.2049L8.49922 23.2768C8.51023 23.3019 8.52346 23.326 8.53875 23.3487C8.54548 23.368 8.55518 23.3862 8.5675 23.4026C8.59321 23.443 8.62335 23.4803 8.65735 23.514L19.4386 34.2953C19.5761 34.413 19.753 34.4745 19.9339 34.4676C20.1147 34.4606 20.2863 34.3856 20.4143 34.2576C20.5424 34.1296 20.6173 33.958 20.6243 33.7771C20.6313 33.5962 20.5698 33.4193 20.452 33.2818L10.8998 23.7189H36.8359C37.0266 23.7189 37.2094 23.6431 37.3442 23.5083C37.479 23.3735 37.5547 23.1907 37.5547 23.0001C37.5547 22.8095 37.479 22.6267 37.3442 22.4919C37.2094 22.3571 37.0266 22.2814 36.8359 22.2814Z" fill="black"/>
</g>
<defs>
<clipPath id="clip0_206_5">
<rect width="46" height="46" fill="white"/>
</clipPath>
</defs>
</svg>
