<svg width="64" height="64" viewBox="0 0 64 64" fill="none" xmlns="http://www.w3.org/2000/svg">
<path d="M55 6H53V22H55V6Z" fill="#3F3A34"/>
<path d="M41 22C41 19.727 39.476 17.636 36.895 16.329L34.908 5.40298L30 2.13098V3.64998L26.043 8.59598L25.072 16.364C22.519 17.672 21 19.739 21 22C21 23.832 21.965 25.473 23.555 26.708C22.229 29.598 19 37.321 19 44C19 49.964 21.086 56.814 22.33 60.366C22.881 61.941 24.377 63 26.053 63C28.229 63 30 61.229 30 59.053V58.487C30 58.063 29.932 57.643 29.797 57.238C29.33 55.837 27 48.619 27 44C27 36.688 29.755 30.678 30.612 28.987C30.742 28.99 30.869 29 31 29C31.132 29 31.259 28.99 31.389 28.987C32.246 30.675 35 36.668 35 44C35 48.619 32.67 55.837 32.203 57.238C32.068 57.642 32 58.062 32 58.486V59.052C32 61.229 33.771 63 35.947 63C37.622 63 39.119 61.941 39.67 60.366C40.914 56.814 43 49.964 43 44C43 37.321 39.771 29.598 38.445 26.708C40.035 25.473 41 23.832 41 22ZM33.092 6.59698L35.005 17.101L35.058 17.685L35.142 17.722L33.271 20.061C32.933 19.666 32.5 19.362 32.001 19.184V5.86898L33.092 6.59698ZM32 22C32 22.551 31.551 23 31 23C30.449 23 30 22.551 30 22C30 21.449 30.449 21 31 21C31.551 21 32 21.449 32 22ZM27.957 9.40398L30 6.85098V19.185C29.58 19.335 29.199 19.565 28.889 19.872L27.035 16.782L27.957 9.40398ZM25 44C25 48.804 27.22 55.832 27.9 57.87C27.966 58.07 28 58.277 28 58.486V59.052C28 60.126 27.126 61 26.053 61C25.226 61 24.489 60.479 24.218 59.705C23.016 56.273 21 49.669 21 44C21 42.383 21.218 40.682 21.553 39H24V37H22.006C22.178 36.321 22.361 35.651 22.557 35H25V33H23.207C23.449 32.296 23.693 31.623 23.932 31H26V29H24.738C24.939 28.525 25.116 28.125 25.276 27.77C26.232 28.23 27.314 28.571 28.483 28.776C27.318 31.229 25 36.987 25 44ZM23 22C23 20.605 23.968 19.272 25.627 18.321L28.034 22.333C28.202 23.829 29.46 25 31 25C32.517 25 33.761 23.865 33.959 22.401L36.936 18.68C38.247 19.594 39 20.773 39 22C39 24.71 35.336 27 31 27C26.664 27 23 24.71 23 22ZM37.262 29H36V31H38.068C38.307 31.623 38.551 32.296 38.793 33H37V35H39.443C39.639 35.651 39.822 36.321 39.994 37H38V39H40.447C40.782 40.682 41 42.383 41 44C41 49.669 38.984 56.273 37.783 59.705C37.512 60.479 36.774 61 35.947 61C34.874 61 34 60.126 34 59.053V58.487C34 58.278 34.034 58.07 34.1 57.871C34.78 55.832 37 48.804 37 44C37 36.987 34.682 31.229 33.517 28.776C34.686 28.571 35.769 28.23 36.724 27.77C36.884 28.125 37.061 28.525 37.262 29Z" fill="#3F3A34"/>
<path d="M59 26V7.314C59 3.833 55.86 1 52 1C48.14 1 45 3.833 45 7.314V26C42.794 26 41 27.794 41 30C41 32.206 42.794 34 45 34H49V63H55V34H59C61.206 34 63 32.206 63 30C63 27.794 61.206 26 59 26ZM52 3C54.757 3 57 4.936 57 7.314V26H55V24H53V26H51V6H49V26H47V7.314C47 4.936 49.243 3 52 3ZM53 61H51V34H53V61ZM59 32H55H49H45C43.897 32 43 31.103 43 30C43 28.897 43.897 28 45 28H46H47H57H58H59C60.103 28 61 28.897 61 30C61 31.103 60.103 32 59 32Z" fill="#3F3A34"/>
<path d="M16 48.76V19.651C19.1 17.864 21 14.604 21 11C21 6.77102 18.323 2.98102 14.337 1.57102L13.004 1.09902L13 10H9V1.09802L7.667 1.56902C3.679 2.97902 1 6.76902 1 11C1 14.604 2.9 17.864 6 19.651V48.76C4.112 50.274 3 52.569 3 55C3 59.14 6.232 62.64 10.338 62.967C10.556 62.989 10.776 63 11 63C11.224 63 11.444 62.989 11.642 62.969C15.768 62.64 19 59.14 19 55C19 52.569 17.888 50.274 16 48.76ZM11.463 60.977C11.158 61.007 10.862 61.009 10.517 60.975C7.423 60.728 5 58.104 5 55C5 53.044 5.962 51.205 7.573 50.08L8 49.781V18.434L7.446 18.158C4.704 16.793 3 14.05 3 11C3 8.11102 4.56 5.48002 7 4.06902V10C7 11.103 7.897 12 9 12H13C14.103 12 15 11.103 15 10L15.003 4.07102C17.441 5.48202 19 8.11302 19 11C19 14.05 17.296 16.793 14.554 18.158L14 18.434V49.781L14.427 50.079C16.038 51.205 17 53.044 17 55C17 58.104 14.577 60.728 11.463 60.977Z" fill="#3F3A34"/>
<path d="M11 51C8.794 51 7 52.794 7 55C7 57.206 8.794 59 11 59C13.206 59 15 57.206 15 55C15 52.794 13.206 51 11 51ZM11 57C9.897 57 9 56.103 9 55C9 53.897 9.897 53 11 53C12.103 53 13 53.897 13 55C13 56.103 12.103 57 11 57Z" fill="#3F3A34"/>
</svg>
